# Blender 3.5.1
# www.blender.org
mtllib arma2.mtl
o Light_Machine
v 0.040227 1.431549 -0.724816
v 0.025547 1.431162 -1.128372
v 0.040227 1.251113 -0.724816
v 0.025547 1.251113 -1.128372
v -0.097510 1.431162 -1.123896
v -0.082830 1.431549 -0.720340
v -0.097510 1.251113 -1.123896
v -0.082830 1.251113 -0.720340
v -0.020825 1.251113 -0.722595
v -0.035505 1.251113 -1.126151
v -0.035505 1.431162 -1.126151
v -0.020825 1.431549 -0.722595
v 0.110973 1.130357 -0.991903
v 0.031996 1.069406 -3.162968
v 0.106638 0.764546 -1.111071
v 0.037507 0.139551 -3.011478
v 0.201847 1.277015 1.506169
v 0.194269 0.933803 1.297872
v 0.114618 0.779957 -0.891704
v 0.125602 0.804057 -0.589776
v 0.125602 1.128145 -0.589776
v 0.112810 0.079195 -0.941415
v 0.127096 0.080800 -0.548700
v 0.111881 0.459467 -0.966945
v 0.127096 0.469091 -0.548700
v 0.110256 0.262144 -1.011624
v 0.125275 0.264052 -0.598758
v 0.113767 0.671044 -0.915104
v 0.127096 0.639982 -0.548700
v 0.126025 0.713647 -0.578145
v -0.245072 0.139559 -3.001194
v -0.250583 1.069414 -3.152683
v -0.175941 0.764554 -1.100786
v -0.171606 1.130361 -0.981619
v -0.167961 0.779965 -0.881419
v -0.156977 0.804065 -0.579491
v -0.156977 1.128145 -0.579491
v -0.080732 1.277015 1.516454
v -0.088310 0.933811 1.308156
v -0.156554 0.713655 -0.567861
v -0.168812 0.671052 -0.904820
v -0.155483 0.639990 -0.538415
v -0.170698 0.459475 -0.956661
v -0.155483 0.469099 -0.538415
v -0.172323 0.262152 -1.001339
v -0.157304 0.264060 -0.588473
v -0.169769 0.079203 -0.931132
v -0.155483 0.080808 -0.538415
v -0.080091 1.130073 1.534077
v 0.202488 1.130065 1.523793
v 0.110809 0.965354 -0.996415
v 0.034617 0.627065 -3.090902
v -0.247962 0.627073 -3.080619
v -0.171770 0.965362 -0.986131
v -0.079966 1.212545 1.537527
v 0.202613 1.212538 1.527242
v -0.083969 1.014769 1.427475
v 0.198610 1.014761 1.417191
v 0.170905 0.889598 0.655608
v 0.170905 1.277015 0.655608
v -0.111674 1.277015 0.665887
v -0.111674 0.889606 0.665887
v 0.170905 1.128147 0.655608
v -0.111674 1.128145 0.665887
v 0.108353 1.536624 -0.729182
v 0.180054 1.538684 1.241855
v 0.103147 1.123569 -0.872294
v -0.150025 1.536624 -0.719783
v -0.078324 1.538684 1.251254
v -0.155231 1.123569 -0.862895
v 0.158816 1.123569 0.658016
v -0.099562 1.123569 0.667415
v 0.180054 1.277015 1.241855
v -0.078324 1.277015 1.251254
v -0.099562 1.277015 0.667415
v 0.158816 1.277015 0.658016
v 0.134864 1.283047 0.190065
v 0.146641 1.283047 0.513829
v 0.147701 0.018993 0.542977
v 0.160840 0.006386 0.904157
v -0.109023 1.283047 0.198937
v -0.097245 1.283047 0.522701
v -0.096185 0.018993 0.551849
v -0.083046 0.006386 0.913029
v -0.096336 0.125757 0.547711
v 0.147551 0.125757 0.538840
v 0.159641 0.114215 0.871190
v -0.084246 0.114215 0.880062
v -0.031824 0.672666 -0.378868
v -0.033580 0.839546 -0.427074
v -0.031252 0.686651 -0.363077
v -0.031886 0.839546 -0.380543
v -0.033539 0.741467 -0.425965
v -0.032057 0.756402 -0.385234
v -0.031736 0.721122 -0.376393
v -0.033699 0.784506 -0.430352
v -0.032053 0.793296 -0.385126
v -0.032821 0.705340 -0.406249
v 0.014270 0.793296 -0.386811
v 0.014437 0.839546 -0.382228
v 0.012743 0.839546 -0.428759
v 0.012624 0.784506 -0.432037
v 0.012785 0.741467 -0.427650
v 0.014267 0.756402 -0.386919
v 0.013502 0.705340 -0.407934
v 0.014588 0.721122 -0.378077
v 0.014499 0.672666 -0.380553
v 0.015072 0.686653 -0.364762
v 0.047931 0.839546 -0.176162
v 0.042805 0.607616 -0.317092
v 0.045979 0.839546 -0.229831
v 0.042805 0.658873 -0.317092
v -0.050080 0.839546 -0.172596
v -0.052031 0.839546 -0.226266
v -0.055205 0.607616 -0.313527
v -0.055205 0.658873 -0.313527
v -0.050079 0.665478 -0.172596
v -0.050695 0.624564 -0.189532
v -0.052182 0.607616 -0.230420
v -0.053826 0.658873 -0.275613
v -0.052339 0.675820 -0.234726
v -0.052031 0.716734 -0.226267
v -0.063954 0.607618 -0.554034
v -0.063954 0.658873 -0.554034
v 0.045828 0.607616 -0.233985
v 0.047315 0.624564 -0.193097
v 0.047930 0.665478 -0.176162
v 0.045979 0.716734 -0.229831
v 0.045671 0.675820 -0.238291
v 0.044184 0.658873 -0.279178
v 0.034056 0.607618 -0.557599
v 0.034056 0.658873 -0.557599
v 0.126891 1.469966 1.218714
v 0.050254 1.501795 1.221502
v -0.026686 1.469966 1.224301
v -0.058493 1.393125 1.225458
v -0.026686 1.316286 1.224301
v 0.050254 1.284457 1.221502
v 0.126891 1.316286 1.218714
v 0.158697 1.393125 1.217557
v 0.214938 1.469966 3.616622
v 0.137484 1.501795 3.619440
v 0.061362 1.469966 3.622209
v 0.029555 1.393125 3.623366
v 0.061362 1.316286 3.622209
v 0.137484 1.284457 3.619440
v 0.214938 1.316286 3.616622
v 0.246745 1.393125 3.615465
v 0.194864 1.449876 3.617352
v 0.137484 1.473384 3.619440
v 0.081435 1.449876 3.621479
v 0.057944 1.393125 3.622333
v 0.081435 1.336372 3.621479
v 0.137484 1.312863 3.619440
v 0.194864 1.336372 3.617352
v 0.218357 1.393125 3.616498
v 0.186450 1.449876 3.386037
v 0.129070 1.473384 3.388124
v 0.073021 1.449876 3.390163
v 0.049529 1.393125 3.391017
v 0.073021 1.336372 3.390163
v 0.129070 1.312863 3.388124
v 0.186450 1.336372 3.386037
v 0.209942 1.393125 3.385182
v 0.129070 1.393125 3.388125
v 0.135801 1.501795 3.573152
v 0.213254 1.469966 3.570335
v 0.245061 1.393125 3.569178
v 0.213254 1.316286 3.570335
v 0.135800 1.284457 3.573152
v 0.059678 1.316286 3.575921
v 0.027871 1.393125 3.577078
v 0.059678 1.469966 3.575921
v 0.130793 1.501795 3.435510
v 0.208247 1.469966 3.432693
v 0.240054 1.393125 3.431536
v 0.208247 1.316286 3.432693
v 0.130793 1.284457 3.435510
v 0.054671 1.316286 3.438279
v 0.022864 1.393125 3.439436
v 0.054671 1.469966 3.438279
v 0.131684 1.607876 3.459982
v 0.209137 1.607876 3.457165
v 0.135801 1.607876 3.573152
v 0.213254 1.607876 3.570335
v 0.055561 1.607876 3.462751
v 0.059678 1.607876 3.575921
vn -0.9993 -0.0000 0.0364
vn 0.9993 -0.0000 -0.0364
vn -0.0000 1.0000 -0.0010
vn -0.0364 -0.0000 -0.9993
vn -0.0000 -1.0000 -0.0000
vn -0.0359 -0.1609 -0.9863
vn 0.0105 -0.9573 0.2889
vn 0.0113 -0.9500 0.3120
vn -0.0011 0.9995 -0.0307
vn -0.0009 0.9997 -0.0256
vn 0.0025 -0.9975 0.0700
vn 0.0105 -0.9573 0.2888
vn 0.0003 1.0000 0.0085
vn -0.0000 1.0000 -0.0000
vn 0.0355 0.2154 0.9759
vn 0.0362 0.0985 0.9945
vn -0.0023 0.9980 -0.0639
vn 0.0025 -0.9977 0.0684
vn -0.0354 0.2287 -0.9728
vn -0.0356 0.2102 -0.9770
vn 0.0353 0.2430 0.9694
vn 0.0361 0.1196 0.9922
vn -0.0355 0.2210 -0.9746
vn -0.0354 0.2299 -0.9726
vn 0.0360 -0.1321 0.9906
vn 0.0364 -0.0000 0.9993
vn -0.0340 -0.3585 -0.9329
vn 0.0001 -1.0000 0.0041
vn 0.0351 0.2637 0.9640
vn -0.0354 0.2287 -0.9729
vn 0.0361 0.1277 0.9912
vn 0.0318 -0.4865 0.8731
vn 0.0238 -0.7551 0.6551
vn 0.0317 -0.4865 0.8731
vn 0.0362 0.0986 0.9945
vn 0.0204 -0.8277 0.5608
vn 0.0025 -0.9976 0.0686
vn -0.0346 0.3106 -0.9499
vn -0.0349 0.2808 -0.9591
vn -0.0350 -0.2691 -0.9625
vn -0.0363 -0.0387 -0.9986
vn -0.0013 -0.9994 -0.0348
vn 0.0348 0.2926 0.9556
vn -0.0348 -0.2887 -0.9568
vn 0.9993 -0.0000 -0.0363
vn -0.9993 -0.0000 0.0363
vn 0.0363 -0.0628 0.9974
vn 0.0361 -0.1207 0.9920
vn -0.0363 0.0703 -0.9969
vn -0.0364 -0.0124 -0.9993
vn -0.0363 -0.0124 -0.9993
vn -0.0348 -0.2915 -0.9560
vn 0.0361 0.1202 0.9921
vn -0.0348 -0.2914 -0.9560
vn -0.0300 -0.5651 -0.8245
vn 0.0346 0.3030 0.9524
vn -0.0279 -0.6425 -0.7657
vn 0.0241 -0.7488 0.6623
vn 0.0339 0.3606 0.9321
vn 0.0362 -0.0786 0.9962
vn -0.0363 0.0517 -0.9980
vn -0.0363 -0.0000 -0.9993
vn 0.0049 -0.9908 0.1353
vn -0.0076 0.9777 -0.2100
vn 0.0363 -0.0786 0.9962
vn 0.0336 -0.3827 0.9233
vn 0.0362 -0.0786 0.9963
vn 0.0139 -0.9239 0.3824
vn -0.0139 0.9239 -0.3824
vn -0.0356 0.2026 -0.9786
vn 0.3824 0.9239 -0.0139
vn 0.3824 0.9239 -0.0141
vn -0.3824 0.9239 0.0139
vn -0.3824 0.9239 0.0141
vn -0.9233 0.3827 0.0334
vn -0.9232 0.3827 0.0344
vn -0.9233 -0.3827 0.0334
vn -0.9232 -0.3827 0.0343
vn -0.3823 -0.9239 0.0139
vn -0.3823 -0.9239 0.0141
vn 0.3824 -0.9239 -0.0139
vn 0.3824 -0.9239 -0.0141
vn 0.9233 -0.3827 -0.0336
vn 0.9232 -0.3827 -0.0343
vn 0.9233 0.3827 -0.0336
vn 0.9232 0.3827 -0.0343
vn -0.3824 -0.9239 0.0139
vn 0.3825 -0.9239 -0.0139
vn -0.3825 0.9239 0.0139
vn -0.9233 0.3827 0.0336
vn -0.9233 -0.3827 0.0336
vn 0.0363 -0.0000 0.9993
vn 0.3825 0.9239 -0.0139
vn -0.3825 -0.9239 0.0139
vn 0.9233 0.3827 -0.0341
vn 0.9232 -0.3827 -0.0342
vn 0.3825 -0.9239 -0.0141
vn -0.3824 -0.9239 0.0141
vn -0.9232 -0.3827 0.0342
vn -0.9233 0.3827 0.0341
vn 0.0052 0.1966 -0.9805
vn -0.0767 0.1966 -0.9775
vt 0.509766 0.920614
vt 0.616213 0.928492
vt 0.692295 0.928492
vt 0.585848 0.920596
vt 0.509791 0.886619
vt 0.779734 0.931147
vt 0.585873 0.886675
vt 0.703652 0.931147
vt 0.686592 0.886619
vt 0.609048 0.920614
vt 0.692295 0.951692
vt 0.610511 0.886619
vt 0.616213 0.951692
vt 0.686625 0.920541
vt 0.703652 0.954347
vt 0.609073 0.886692
vt 0.610543 0.920614
vt 0.779734 0.954347
vt 0.779734 0.942657
vt 0.703652 0.942657
vt 0.597383 0.886683
vt 0.597358 0.920605
vt 0.692295 0.940002
vt 0.616213 0.940002
vt 0.557149 0.420982
vt 0.430698 0.767463
vt 0.966478 0.431721
vt 0.013649 0.821938
vt 0.840168 0.767463
vt 0.649296 0.697642
vt 0.583322 0.353382
vt 0.272161 0.697640
vt 0.947464 0.255241
vt 0.191150 0.821938
vt 0.085385 0.423022
vt 0.488704 0.639439
vt 0.192327 0.825582
vt 0.403319 0.641848
vt 0.128105 0.360585
vt 0.353898 0.880364
vt 0.690755 0.697642
vt 0.013649 0.710714
vt 0.541868 0.354037
vt 0.710613 0.880364
vt 0.692248 0.764093
vt 0.484783 0.355483
vt 0.481471 0.416453
vt 0.354885 0.767463
vt 0.558389 0.222714
vt 0.150721 0.710714
vt 0.914552 0.763437
vt 0.484444 0.218999
vt 0.840513 0.763437
vt 0.832125 0.764093
vt 0.559308 0.294514
vt 0.075680 0.710714
vt 0.480475 0.292047
vt 0.756567 0.764093
vt 0.569736 0.257849
vt 0.113799 0.710714
vt 0.491994 0.253986
vt 0.796333 0.764093
vt 0.547387 0.333787
vt 0.034637 0.710714
vt 0.478728 0.324196
vt 0.724370 0.764093
vt 0.483518 0.338356
vt 0.709422 0.764093
vt 0.272162 0.750914
vt 0.191148 0.875213
vt 0.082247 0.048887
vt 0.063069 0.225001
vt 0.013647 0.875213
vt 0.840166 0.820737
vt 0.649297 0.750916
vt 0.445575 0.147252
vt 0.471597 0.214755
vt 0.430697 0.820737
vt 0.690756 0.750916
vt 0.013647 0.763988
vt 0.486962 0.147971
vt 0.710612 0.827089
vt 0.692247 0.710819
vt 0.543942 0.149534
vt 0.547111 0.210392
vt 0.354884 0.820737
vt 0.490213 0.692889
vt 0.192326 0.878857
vt 0.942376 0.218105
vt 0.404829 0.695297
vt 0.899929 0.155657
vt 0.353897 0.827089
vt 0.545237 0.132444
vt 0.709421 0.710819
vt 0.481502 0.127747
vt 0.034636 0.763988
vt 0.550049 0.118321
vt 0.724369 0.710818
vt 0.469691 0.088522
vt 0.075678 0.763988
vt 0.548377 0.086231
vt 0.756565 0.710818
vt 0.459365 0.051904
vt 0.113797 0.763988
vt 0.536964 0.048218
vt 0.796332 0.710819
vt 0.470767 0.016861
vt 0.150720 0.763988
vt 0.914551 0.710163
vt 0.544580 0.013317
vt 0.840512 0.710163
vt 0.832124 0.710818
vt 0.461788 0.693691
vt 0.944272 0.190340
vt 0.460278 0.640241
vt 0.083570 0.395196
vt 0.559685 0.389987
vt 0.957432 0.347768
vt 0.098088 0.821938
vt 0.098086 0.875213
vt 0.072193 0.141222
vt 0.469113 0.183814
vt 0.477391 0.693250
vt 0.945715 0.205795
vt 0.475881 0.639801
vt 0.082077 0.410676
vt 0.432097 0.694528
vt 0.923130 0.169713
vt 0.430587 0.641079
vt 0.104816 0.374595
vt 0.249464 0.358838
vt 0.475270 0.880364
vt 0.245504 0.431721
vt 0.352682 0.825582
vt 0.943208 0.911689
vt 0.352682 0.878857
vt 0.782536 0.226288
vt 0.889934 0.911689
vt 0.778803 0.153535
vt 0.475269 0.827089
vt 0.247026 0.403715
vt 0.943208 0.939737
vt 0.120094 0.767462
vt 0.781106 0.198332
vt 0.889934 0.939737
vt 0.120094 0.820737
vt 0.013647 0.935106
vt 0.840512 0.769380
vt 0.909874 0.637391
vt 0.538279 0.636243
vt 0.385244 0.935106
vt 0.924149 0.757004
vt 0.922878 0.769380
vt 0.937177 0.559682
vt 0.013647 0.886394
vt 0.166181 0.640869
vt 0.840512 0.818091
vt 0.537664 0.631670
vt 0.385244 0.886394
vt 0.924149 0.708292
vt 0.137201 0.563770
vt 0.922878 0.818091
vt 0.648672 0.558489
vt 0.425613 0.556327
vt 0.538482 0.586944
vt 0.973449 0.757004
vt 0.536392 0.582387
vt 0.973449 0.708292
vt 0.426359 0.585227
vt 0.648552 0.587399
vt 0.711255 0.827265
vt 0.283038 0.643798
vt 0.265181 0.702166
vt 0.013647 0.013290
vt 0.035840 0.637747
vt 0.959122 0.827265
vt 0.711255 0.881056
vt 0.013647 0.702166
vt 0.779389 0.881056
vt 0.013647 0.264824
vt 0.711255 0.873245
vt 0.678941 0.644158
vt 0.059627 0.013290
vt 0.696798 0.702526
vt 0.926139 0.638108
vt 0.959122 0.873245
vt 0.711255 0.927036
vt 0.948331 0.702526
vt 0.779389 0.927036
vt 0.059627 0.264824
vt 0.938992 0.873245
vt 0.906676 0.643246
vt 0.938992 0.827265
vt 0.055303 0.642886
vt 0.034892 0.702166
vt 0.013647 0.243579
vt 0.059627 0.243579
vt 0.927087 0.702526
vt 0.439390 0.937892
vt 0.194340 0.951128
vt 0.702881 0.892103
vt 0.407121 0.932434
vt 0.160011 0.951128
vt 0.437111 0.941149
vt 0.702881 0.888127
vt 0.127697 0.949418
vt 0.408117 0.941149
vt 0.157220 0.949419
vt 0.425503 0.930543
vt 0.178550 0.951128
vt 0.423580 0.938492
vt 0.141513 0.949418
vt 0.430373 0.939393
vt 0.134660 0.949418
vt 0.417353 0.930642
vt 0.170400 0.951128
vt 0.416676 0.939301
vt 0.148464 0.949418
vt 0.432688 0.933463
vt 0.186306 0.951128
vt 0.490361 0.939602
vt 0.148464 0.940685
vt 0.497594 0.944537
vt 0.157220 0.940685
vt 0.501799 0.936837
vt 0.160012 0.942395
vt 0.492994 0.931325
vt 0.170400 0.942395
vt 0.485481 0.928164
vt 0.178551 0.942395
vt 0.484270 0.936252
vt 0.141513 0.940685
vt 0.477725 0.928164
vt 0.186306 0.942395
vt 0.477637 0.934530
vt 0.134660 0.940685
vt 0.469848 0.929744
vt 0.194340 0.942395
vt 0.694148 0.892103
vt 0.470734 0.933620
vt 0.694148 0.888127
vt 0.127698 0.940685
vt 0.872827 0.915935
vt 0.013647 0.960548
vt 0.914096 0.885732
vt 0.078798 0.960548
vt 0.882174 0.919807
vt 0.873430 0.949619
vt 0.910400 0.894654
vt 0.826929 0.949619
vt 0.386211 0.892118
vt 0.013647 0.942070
vt 0.395074 0.887236
vt 0.873430 0.931141
vt 0.430567 0.917572
vt 0.078798 0.942070
vt 0.425908 0.909113
vt 0.826929 0.931141
vt 0.402035 0.920843
vt 0.046442 0.942070
vt 0.408551 0.926054
vt 0.054786 0.942070
vt 0.416843 0.925132
vt 0.063130 0.942070
vt 0.419647 0.912562
vt 0.834077 0.931141
vt 0.411354 0.913485
vt 0.842420 0.931141
vt 0.406238 0.907502
vt 0.850292 0.931141
vt 0.470282 0.895694
vt 0.124140 0.942070
vt 0.465623 0.887236
vt 0.781586 0.931141
vt 0.899620 0.879736
vt 0.063130 0.960548
vt 0.891277 0.879736
vt 0.054786 0.960548
vt 0.885377 0.885636
vt 0.046442 0.960548
vt 0.891029 0.898430
vt 0.850292 0.949619
vt 0.895453 0.891919
vt 0.842420 0.949619
vt 0.903796 0.891919
vt 0.834077 0.949619
vt 0.955986 0.903085
vt 0.124140 0.960548
vt 0.952291 0.912006
vt 0.781586 0.949619
vt 0.699542 0.476048
vt 0.699553 0.491692
vt 0.699563 0.507388
vt 0.699570 0.523057
vt 0.699573 0.538727
vt 0.699573 0.554423
vt 0.699533 0.429065
vt 0.699533 0.444709
vt 0.699535 0.460378
vt 0.498499 0.887204
vt 0.247465 0.476193
vt 0.509628 0.898400
vt 0.247473 0.491979
vt 0.509579 0.913954
vt 0.247480 0.507532
vt 0.498499 0.925034
vt 0.247486 0.523201
vt 0.482829 0.925034
vt 0.247490 0.538870
vt 0.471797 0.914070
vt 0.247450 0.429065
vt 0.247494 0.554423
vt 0.471749 0.898284
vt 0.247454 0.444851
vt 0.482829 0.887204
vt 0.247459 0.460522
vt 0.496451 0.892149
vt 0.814521 0.879155
vt 0.504682 0.900449
vt 0.826211 0.879155
vt 0.504634 0.911906
vt 0.837668 0.879155
vt 0.496451 0.920089
vt 0.849241 0.879155
vt 0.484877 0.920089
vt 0.860815 0.879155
vt 0.476741 0.912022
vt 0.872272 0.879155
vt 0.779685 0.879155
vt 0.476694 0.900333
vt 0.791375 0.879155
vt 0.484878 0.892149
vt 0.802948 0.879155
vt 0.814521 0.922765
vt 0.978121 0.875511
vt 0.826211 0.922765
vt 0.986353 0.883810
vt 0.837668 0.922765
vt 0.986305 0.895267
vt 0.849241 0.922765
vt 0.978122 0.903451
vt 0.860815 0.922765
vt 0.966548 0.903451
vt 0.872272 0.922765
vt 0.779685 0.922765
vt 0.958412 0.895384
vt 0.791375 0.922765
vt 0.958364 0.883694
vt 0.802948 0.922765
vt 0.966548 0.875511
vt 0.972383 0.889597
vt 0.256199 0.491975
vt 0.453786 0.923268
vt 0.256192 0.476189
vt 0.468389 0.917271
vt 0.506699 0.952325
vt 0.256185 0.460519
vt 0.256181 0.444848
vt 0.256177 0.429062
vt 0.256221 0.554421
vt 0.256217 0.538867
vt 0.256212 0.523198
vt 0.256206 0.507529
vt 0.590336 0.923845
vt 0.439435 0.917271
vt 0.282149 0.491966
vt 0.971114 0.913675
vt 0.282140 0.476180
vt 0.956463 0.907798
vt 0.502163 0.926775
vt 0.282133 0.460510
vt 0.282130 0.444841
vt 0.282129 0.429055
vt 0.282168 0.554413
vt 0.282167 0.538859
vt 0.282164 0.523190
vt 0.282157 0.507519
vt 0.985515 0.907798
vt 0.585800 0.949395
vt 0.547178 0.927225
vt 0.971114 0.934187
vt 0.532576 0.927225
vt 0.956512 0.934187
vt 0.528552 0.926775
vt 0.547178 0.948561
vt 0.453786 0.943254
vt 0.532576 0.948561
vt 0.468389 0.943254
vt 0.532282 0.947782
vt 0.561530 0.927225
vt 0.985465 0.934187
vt 0.612189 0.949395
vt 0.561530 0.948561
vt 0.615919 0.928388
vt 0.439435 0.943254
s 0
usemtl Material
f 6/12/1 5/9/1 7/14/1 8/17/1
f 1/1/2 3/5/2 4/7/2 2/4/2
f 1/2/3 2/3/3 11/23/3 12/24/3
f 2/4/4 4/7/4 10/21/4 11/22/4
f 4/8/5 3/6/5 9/19/5 10/20/5
f 10/20/5 9/19/5 8/18/5 7/15/5
f 11/22/4 10/21/4 7/16/4 5/10/4
f 12/24/3 11/23/3 5/11/3 6/13/3
f 34/77/1 32/72/1 53/121/1 54/122/1
f 37/85/1 34/77/1 54/122/1
f 40/93/1 35/81/1 41/95/1 42/97/1
f 44/101/1 43/99/1 45/103/1 46/105/1
f 46/105/1 45/103/1 47/107/1 48/110/1
f 42/97/1 41/95/1 43/99/1 44/101/1
f 36/84/1 35/81/1 40/93/1
f 14/27/2 13/25/2 51/117/2 52/118/2
f 13/25/2 21/47/2 51/117/2
f 56/126/2 63/141/2 60/133/2 17/35/2
f 30/67/2 29/65/2 28/63/2 19/43/2
f 25/57/2 27/61/2 26/59/2 24/55/2
f 27/61/2 23/52/2 22/49/2 26/59/2
f 29/65/2 25/57/2 24/55/2 28/63/2
f 20/46/2 30/67/2 19/43/2
f 53/120/6 32/73/6 14/28/6 52/119/6
f 33/75/7 31/69/8 16/32/8 15/30/7
f 32/74/9 34/78/10 13/26/10 14/29/9
f 35/79/11 33/75/12 15/30/12 19/41/11
f 34/78/13 37/86/14 21/48/14 13/26/13
f 38/87/15 55/123/16 56/125/16 17/36/15
f 61/136/17 38/88/17 17/37/17 60/134/17
f 59/132/18 62/140/18 36/82/18 20/44/18
f 41/96/19 35/80/20 19/42/20 28/64/19
f 40/94/21 42/98/22 29/66/22 30/68/21
f 45/104/23 43/100/24 24/56/24 26/60/23
f 44/102/25 46/106/26 27/62/26 25/58/25
f 47/108/27 45/104/27 26/60/27 22/50/27
f 48/111/28 47/109/28 22/51/28 23/53/28
f 46/106/26 48/112/29 23/54/29 27/62/26
f 43/100/24 41/96/30 28/64/30 24/56/24
f 42/98/22 44/102/25 25/58/25 29/66/22
f 36/83/31 40/94/21 30/68/21 20/45/31
f 49/113/32 57/127/33 58/129/33 50/115/34
f 58/130/2 63/141/2 50/116/2
f 51/117/2 21/47/2 20/46/2 19/43/2
f 51/117/2 19/43/2 15/31/2
f 52/118/2 51/117/2 15/31/2 16/33/2
f 31/70/6 53/120/6 52/119/6 16/34/6
f 54/122/1 53/121/1 31/71/1 33/76/1
f 54/122/1 33/76/1 35/81/1
f 37/85/1 54/122/1 35/81/1 36/84/1
f 55/123/35 49/113/32 50/115/34 56/125/35
f 50/116/2 63/141/2 56/126/2
f 57/127/33 39/90/36 18/38/36 58/129/33
f 18/39/2 59/131/2 63/141/2 58/130/2
f 39/91/1 57/128/1 64/144/1 62/139/1
f 61/137/1 64/144/1 55/124/1 38/89/1
f 64/144/1 57/128/1 49/114/1
f 64/144/1 49/114/1 55/124/1
f 63/141/2 59/131/2 20/46/2 21/47/2
f 62/139/1 64/144/1 37/85/1 36/84/1
f 64/145/4 61/138/4 60/135/4 63/142/4
f 21/48/14 37/86/14 64/146/14 63/143/14
f 39/92/37 62/140/37 59/132/37 18/40/37
f 75/169/1 74/167/1 69/158/1 68/156/1
f 66/150/2 73/165/2 76/170/2 65/149/2
f 68/155/3 69/159/3 66/151/3 65/147/3
f 72/164/1 75/169/1 68/156/1 70/161/1
f 65/148/38 67/153/39 70/162/39 68/157/38
f 74/168/26 73/166/26 66/152/26 69/160/26
f 65/149/2 76/170/2 71/163/2 67/154/2
f 88/198/1 85/192/1 83/185/1 84/188/1
f 87/195/2 80/178/2 79/175/2 86/194/2
f 86/193/40 79/176/41 83/186/41 85/191/40
f 79/177/42 80/179/42 84/189/42 83/187/42
f 80/180/43 87/196/43 88/197/43 84/190/43
f 81/181/44 77/171/44 86/193/40 85/191/40
f 78/173/2 87/195/2 86/194/2 77/172/2
f 87/196/43 78/174/43 82/183/43 88/197/43
f 82/184/1 81/182/1 85/192/1 88/198/1
f 99/221/2 102/227/2 101/225/2 100/223/2
f 99/221/2 104/231/2 103/229/2 102/227/2
f 104/231/2 106/235/2 105/233/2 103/229/2
f 105/233/45 106/235/45 108/240/45 107/237/45
f 97/217/1 92/207/1 90/202/1 96/215/1
f 97/217/1 96/215/1 93/209/1 94/211/1
f 94/211/46 93/209/46 98/219/46 95/213/46
f 98/219/46 89/199/46 91/204/46 95/213/46
f 99/222/47 100/224/48 92/208/48 97/218/47
f 101/226/49 102/228/50 96/216/51 90/203/49
f 102/228/50 103/230/52 93/210/52 96/216/51
f 104/232/53 99/222/47 97/218/47 94/212/53
f 103/230/54 105/234/55 98/220/55 93/210/54
f 106/236/56 104/232/53 94/212/53 95/214/56
f 98/220/55 105/234/55 107/238/57 89/200/57
f 107/239/58 108/241/58 91/205/58 89/201/58
f 108/242/59 106/236/56 95/214/56 91/206/59
f 119/263/1 118/261/1 121/267/1 120/265/1
f 118/261/1 117/259/1 122/269/1 121/267/1
f 127/279/45 126/277/45 129/283/45 128/281/45
f 126/277/2 125/275/2 130/285/2 129/283/2
f 122/269/46 117/259/46 113/251/46 114/253/46
f 116/257/1 115/255/1 119/263/1 120/265/1
f 124/273/1 123/271/1 115/255/1 116/257/1
f 127/279/45 128/281/45 111/247/45 109/243/45
f 110/245/2 112/249/2 130/285/2 125/275/2
f 131/287/2 132/289/2 112/249/2 110/245/2
f 113/252/26 117/260/60 127/280/60 109/244/26
f 122/270/61 114/254/62 111/248/62 128/282/61
f 119/264/63 115/256/5 110/246/5 125/276/63
f 116/258/14 120/266/64 130/286/64 112/250/14
f 115/256/5 123/272/5 131/288/5 110/246/5
f 132/290/14 124/274/14 116/258/14 112/250/14
f 117/260/65 118/262/66 126/278/66 127/280/67
f 118/262/68 119/264/63 125/276/63 126/278/68
f 120/266/64 121/268/69 129/284/69 130/286/64
f 121/268/70 122/270/61 128/282/61 129/284/70
f 133/291/71 134/292/71 174/366/72 175/368/72
f 134/292/73 135/293/73 181/377/74 174/366/74
f 135/293/75 136/294/75 180/376/76 181/377/76
f 136/294/77 137/295/77 179/375/78 180/376/78
f 137/295/79 138/296/79 178/374/80 179/375/80
f 138/297/81 139/298/81 177/372/82 178/373/82
f 139/298/83 140/299/83 176/371/84 177/372/84
f 140/299/85 133/291/85 175/368/86 176/371/86
f 141/300/26 142/302/26 150/319/26 149/317/26
f 142/302/26 143/304/26 151/321/26 150/319/26
f 143/304/26 144/306/26 152/323/26 151/321/26
f 144/306/26 145/308/26 153/325/26 152/323/26
f 145/308/26 146/310/26 154/327/26 153/325/26
f 146/310/26 147/313/26 155/330/26 154/327/26
f 147/313/26 148/315/26 156/332/26 155/330/26
f 148/315/26 141/300/26 149/317/26 156/332/26
f 149/318/87 150/320/87 158/336/87 157/334/87
f 150/320/88 151/322/88 159/338/88 158/336/88
f 151/322/83 152/324/83 160/340/83 159/338/83
f 152/324/85 153/326/85 161/342/85 160/340/85
f 153/326/71 154/328/71 162/344/71 161/342/71
f 154/329/89 155/331/89 163/347/89 162/345/89
f 155/331/90 156/333/90 164/349/90 163/347/90
f 156/333/91 149/318/91 157/334/91 164/349/91
f 157/335/26 158/337/26 165/351/26
f 158/337/92 159/339/92 165/351/92
f 159/339/92 160/341/92 165/351/92
f 160/341/92 161/343/92 165/351/92
f 161/343/92 162/346/92 165/351/92
f 162/346/26 163/348/26 165/351/26
f 163/348/26 164/350/26 165/351/26
f 164/350/26 157/335/26 165/351/26
f 167/354/93 166/352/93 142/303/71 141/301/71
f 168/357/85 167/354/85 141/301/85 148/316/85
f 169/358/83 168/357/83 148/316/83 147/314/83
f 170/359/81 169/358/81 147/314/81 146/311/81
f 171/361/94 170/360/94 146/312/87 145/309/87
f 172/362/91 171/361/91 145/309/91 144/307/91
f 173/363/90 172/362/90 144/307/90 143/305/90
f 166/352/89 173/363/89 143/305/89 142/303/89
f 183/382/14 182/380/14 184/385/14 185/387/14
f 176/371/95 175/368/95 167/354/85 168/357/85
f 177/372/96 176/371/96 168/357/83 169/358/83
f 178/373/97 177/372/97 169/358/81 170/359/81
f 179/375/98 178/374/98 170/360/94 171/361/94
f 180/376/99 179/375/99 171/361/91 172/362/91
f 181/377/100 180/376/100 172/362/90 173/363/90
f 182/380/14 186/390/14 187/393/14 184/385/14
f 175/369/101 174/367/101 182/381/101 183/383/101
f 166/353/26 167/355/26 185/388/26 184/386/26
f 167/356/2 175/370/2 183/384/2 185/389/2
f 174/367/102 181/378/102 186/391/102 182/381/102
f 181/379/1 173/364/1 187/394/1 186/392/1
f 173/365/26 166/353/26 184/386/26 187/395/26
